<svg width="251" height="251" viewBox="0 0 251 251" fill="none" xmlns="http://www.w3.org/2000/svg">
<path d="M5.91663 245.083H137.458C151.592 245.083 165.587 242.3 178.645 236.891C191.702 231.482 203.567 223.555 213.561 213.561C223.555 203.567 231.482 191.702 236.891 178.645C242.299 165.587 245.083 151.592 245.083 137.458C245.083 123.325 242.299 109.33 236.891 96.2722C231.482 83.2145 223.555 71.35 213.561 61.3561C203.567 51.3622 191.702 43.4346 178.645 38.026C165.587 32.6173 151.592 29.8335 137.458 29.8335C82.0553 29.8335 35.7766 71.6877 29.8333 125.5M203.229 47.771L215.187 35.8127M47.7708 35.8127L59.7291 47.771" stroke="#1AA090" stroke-width="10" stroke-linecap="round" stroke-linejoin="round"/>
<path d="M179.312 89.6251L144.155 124.783C142.5 123.069 140.521 121.703 138.333 120.763C136.144 119.823 133.79 119.328 131.409 119.307C129.027 119.286 126.665 119.74 124.46 120.642C122.256 121.544 120.253 122.876 118.569 124.56C116.885 126.244 115.553 128.247 114.651 130.452C113.749 132.656 113.295 135.018 113.316 137.4C113.337 139.782 113.831 142.135 114.772 144.324C115.712 146.512 117.078 148.492 118.791 150.146C122.156 153.511 126.72 155.402 131.479 155.402C136.238 155.402 140.802 153.511 144.167 150.146C147.532 146.781 149.422 142.217 149.422 137.458C149.422 132.7 147.532 128.136 144.167 124.771M131.479 23.8542V5.91675M107.562 5.91675H155.396M5.91663 161.375H41.7916M5.91663 209.208H65.7083" stroke="#1AA090" stroke-width="10" stroke-linecap="round" stroke-linejoin="round"/>
</svg>
